<?xml version="1.0" encoding="utf-8"?>
<!-- Generator: Adobe Illustrator 25.2.1, SVG Export Plug-In . SVG Version: 6.00 Build 0)  -->
<svg version="1.1" id="Layer_1" xmlns="http://www.w3.org/2000/svg" xmlns:xlink="http://www.w3.org/1999/xlink" x="0px" y="0px"
	 viewBox="0 0 612 444" style="enable-background:new 0 0 612 444;" xml:space="preserve">
<style type="text/css">
	.st0{fill:#FFDA87;}
	.st1{fill:#6D6E71;}
	.st2{fill:#F04E29;}
</style>
<polygon class="st0" points="460.2,26.8 460.2,340.2 596.9,292.8 596.9,74 "/>
<g>
	<path class="st1" d="M382,286l106-39.3v-132L382,80.4V286z M389.4,90.7c8.5,2.8,86.5,28,91.2,29.5c0,5.1,0,116.5,0,121.4
		c-4.4,1.6-82.4,30.5-91.2,33.8C389.4,265.5,389.4,100.1,389.4,90.7z"/>
</g>
<g>
	<path class="st2" d="M378.3,73.8v218.9h218.9V73.8H378.3z M582.9,88v190.3H392.5V88H582.9z"/>
</g>
<g>
	<path class="st1" d="M63.3,307.7v7.5H51.1v51.2c0,15.7,1.4,22.6,5.1,27.6c4.2,5.2,11.1,8.1,19.5,8.1c10.6,0,18.9-4.6,22.3-12.6
		c1.8-3.9,2.2-9.3,2.2-22.9v-51.4H87.7v-7.5h32.3v7.5h-12.4v51.2c-0.1,21.7-0.6,24.4-4.8,30.5c-5.7,8.4-15.3,12.7-27.6,12.7
		c-14.2,0-24.9-5.5-29.5-15.4c-2.5-5.5-3.3-11.4-3.3-28v-51.1H30.1v-7.5H63.3z"/>
	<path class="st1" d="M188.2,307.7v26.4h-6.7c-0.6-12.7-8.8-20.7-21.4-20.7c-12,0-19.8,6.9-19.8,17.5c0,8.8,4.3,12.9,20.8,19.9
		c15.3,6.3,18.6,7.9,23.2,12c5.1,4.2,7.9,10.8,7.9,18.3c0,16.9-12.3,28.6-30.2,28.6c-11.1,0-18.7-3.4-25.3-11.5v9.4h-7.2V379h7.2
		c0.1,14.8,8.7,23.1,24.1,23.1c13.8,0,21.9-7.3,21.9-19.9c0-9.7-4.2-14.5-18.1-20.2c-15.9-6.6-21.6-9.6-25.8-13.3
		c-5.4-4.6-7.9-10.3-7.9-17.2c0-15.1,11.7-25.8,28.3-25.8c9.3,0,16.3,3.3,21.4,10.3v-8.2H188.2z"/>
	<path class="st1" d="M248.6,306.4l29.4,93.9h12.7v7.3H258v-7.3h11.4l-7.5-24.6h-36.2l-7.9,24.6h11.1v7.3h-30.2v-7.3h11.2l31.7-93.9
		H248.6z M252.6,345.8c-2.7-8.8-5.5-18.6-8.1-27.6l-4.3,13.8c-2.8,9.1-4.3,13.8-4.3,13.8l-7.8,22.6h31.7L252.6,345.8z"/>
</g>
<g>
	<g>
		<path class="st2" d="M110.6,257.1c-5,27.2-16,38.2-38.2,38.2c-28.5,0-43.4-22.5-43.4-64.8c0-41.1,15.8-64.4,43.7-64.4
			c21.2,0,33.1,11.5,38.5,37.8L97,207.2c-1.7-8.2-2.1-9.7-3.7-14.3c-3.3-8.9-10.8-14.2-20.1-14.2c-18.4,0-28.1,17.9-28.1,52.1
			c0,33.5,9.9,51.7,28.5,51.7c13.2,0,18.8-6.9,23.5-28.9L110.6,257.1z"/>
		<path class="st2" d="M165.1,168.5c23.6,0,36.9,12.3,36.9,34.1c0,15.3-6.3,25.7-20.3,32.6l23.3,57.5h-16.2l-20.8-54.2h-23.8v54.2
			H129V168.5H165.1z M144.1,226h18.8c15.4,0,24.2-8.6,24.2-23.8c0-13.6-8.2-21.2-23.1-21.2h-19.9V226z"/>
		<path class="st2" d="M289.3,168.5V181h-50.1v41.1h41.3v12.5h-41.3v58.1h-15.1V168.5H289.3z"/>
	</g>
</g>
<g>
	<g>
		<path class="st1" d="M318.7,401.9l-2-4.6h-2.9v4.6h-1.3v-10.6h4c0.9,0,1.7,0.1,2.4,0.6c0.7,0.5,1.1,1.4,1.1,2.3
			c0,1.2-0.7,2.4-2,2.7l2.1,4.9H318.7z M316.3,396.2c0.7,0,1.3,0,1.8-0.6c0.4-0.4,0.5-0.9,0.5-1.4c0-0.6-0.2-1.1-0.7-1.5
			c-0.5-0.3-0.9-0.3-1.4-0.3h-2.6v3.8H316.3z"/>
	</g>
	<g>
		<path class="st1" d="M305.2,396.6c0,5.8,4.7,10.6,10.6,10.6c5.8,0,10.6-4.7,10.6-10.6c0-5.8-4.8-10.6-10.6-10.6
			C310,386,305.2,390.7,305.2,396.6z M306.5,396.6c0-5.1,4.2-9.3,9.3-9.3c5.1,0,9.3,4.2,9.3,9.3c0,5.1-4.2,9.3-9.3,9.3
			C310.7,405.9,306.5,401.7,306.5,396.6z"/>
	</g>
</g>
</svg>
